# xmcd
# 
# Track frame offsets:
#     150
#     14930
#     44792
#     68770
#     111567
#     145292
#     164662
#     194220
#     238532
#     265940
#     289592
# 
# Disc length: 4247
# 
# Revision: 2
# Processed by: cddbd v1.5.2PL0 Copyright (c) Steve Scherf et al.
# Submitted via: BonkEnc v1.0.8
# 
DISCID=ba10950b
DTITLE=Scandinavian Jazz Quartet and Lars Jansson - A Night In Bilbao
DYEAR=1996
DGENRE=Contemporary Jazz
TTITLE0=Remembering Issa
TTITLE1=Slagio
TTITLE2=Red
TTITLE3=A Night In Bilbao
TTITLE4=For All We Know
TTITLE5=Watch That Bird
TTITLE6=Taikuri
TTITLE7=No Smoke
TTITLE8=For Tetsu Fukuda
TTITLE9=African Eye
TTITLE10=Laengselslandskaber
EXTD=YEAR: 1996
EXTT0=
EXTT1=
EXTT2=
EXTT3=
EXTT4=
EXTT5=
EXTT6=
EXTT7=
EXTT8=
EXTT9=
EXTT10=
PLAYORDER=
